# xmcd
#
# Track frame offsets:
#	150
#	19167
#	39360
#	53092
#	65474
#	80943
#	91847
#	108583
#	132078
#	158559
#	170544
#	185072
#
# Disc length: 2705 seconds
#
# Revision: 0
# Processed by: cddbd v1.5.2PL0 Copyright (c) Steve Scherf et al.
# Submitted via: SynApp - FreeCDDB Version: 2.2
#
DISCID=9a0a8f0c
DTITLE=Graf Lhotzky Terzett - Nightbird
DYEAR=2001
DGENRE=Blues
TTITLE0=Mardi Gras
TTITLE1=I´m Just Waiting For Your Call
TTITLE2=Can´t You Hear Me Talking
TTITLE3=Ain´t Nobody´s Business
TTITLE4=Been In The Pen
TTITLE5=Wabash Rag
TTITLE6=Hesitation Blues
TTITLE7=Feel So Good
TTITLE8=Statesboro Blues
TTITLE9=Calling On My Darling
TTITLE10=All My Money Gone
TTITLE11=Nightbird Blues
EXTD=
EXTT0=
EXTT1=
EXTT2=
EXTT3=
EXTT4=
EXTT5=
EXTT6=
EXTT7=
EXTT8=
EXTT9=
EXTT10=
EXTT11=
PLAYORDER=
